<?xml version="1.0" standalone="no"?>
<!DOCTYPE svg PUBLIC "-//W3C//DTD SVG 20010904//EN"
 "http://www.w3.org/TR/2001/REC-SVG-20010904/DTD/svg10.dtd">
<svg version="1.0" xmlns="http://www.w3.org/2000/svg"
 width="256.000000pt" height="256.000000pt" viewBox="0 0 256.000000 256.000000"
 preserveAspectRatio="xMidYMid meet">
<metadata>
Created by potrace 1.11, written by Peter Selinger 2001-2013
</metadata>
<g transform="translate(0.000000,256.000000) scale(0.100000,-0.100000)"
fill="#000000" stroke="none">
<path d="M109 2512 c0 -24 -1 -25 -9 -7 -8 18 -9 18 -10 -5 -1 -23 -2 -24 -14
-7 -11 14 -19 15 -39 8 -14 -5 -28 -7 -31 -4 -3 4 -6 -458 -6 -1025 0 -580 4
-1032 9 -1032 5 0 11 -24 15 -52 9 -72 47 -147 109 -215 57 -62 151 -128 197
-138 17 -4 30 -10 30 -13 0 -15 109 -17 940 -17 l865 0 65 28 c153 65 268 192
314 346 14 48 16 151 16 892 0 919 1 906 -60 1014 -42 72 -126 163 -174 185
-22 11 -33 15 -22 8 111 -76 180 -164 218 -277 21 -63 22 -84 25 -431 1 -221
-1 -357 -7 -345 -7 17 -9 16 -10 -10 l-1 -30 -14 30 c-10 24 -14 26 -14 10 -1
-18 -7 -20 -51 -17 -33 3 -50 8 -50 17 0 9 -14 15 -37 17 l-38 3 92 53 c51 29
90 58 88 65 -2 7 -6 24 -9 40 -6 27 -7 27 -36 12 -16 -8 -38 -15 -48 -15 -14
0 -205 142 -250 185 -2 2 22 52 52 113 41 82 66 119 100 148 42 36 45 42 38
69 -5 17 -12 29 -16 29 -4 -1 -68 -36 -142 -79 -138 -79 -147 -89 -128 -139 5
-14 9 -14 34 -1 67 35 66 6 -9 -150 l-57 -120 -63 315 c-35 173 -64 316 -66
318 -1 2 -49 -26 -105 -63 -97 -63 -101 -67 -98 -98 3 -36 10 -37 73 -14 l40
15 65 -342 66 -341 -168 -3 c-136 -2 -168 -5 -168 -17 0 -9 -11 -13 -35 -12
-28 2 -37 7 -41 24 -5 18 11 250 31 452 7 72 37 138 69 153 26 11 30 25 18 64
-7 21 -15 17 -151 -62 -79 -46 -148 -87 -153 -92 -4 -4 -5 -23 -2 -40 l6 -32
38 21 c20 11 48 19 61 17 21 -3 24 -9 27 -48 2 -24 -4 -123 -12 -220 -9 -96
-18 -231 -22 -300 -3 -69 -8 -140 -12 -158 -7 -34 -8 -33 -91 99 -81 130 -83
133 -72 169 7 25 10 176 9 466 -2 305 -4 375 -8 244 l-5 -185 -27 -3 c-16 -2
-34 3 -42 11 -13 12 -9 17 25 37 27 15 38 27 35 37 -3 8 -6 19 -6 24 0 6 -8 5
-20 -1 -22 -12 -25 -11 -93 40 -25 19 -46 41 -47 48 0 22 50 112 70 124 21 14
28 48 9 48 -6 0 -40 -16 -75 -36 -46 -26 -64 -41 -64 -56 0 -15 5 -19 20 -15
11 3 20 1 20 -5 0 -21 -43 -109 -50 -101 -4 4 -20 67 -34 138 -15 72 -30 138
-34 148 -4 10 -6 -52 -4 -138 l3 -155 -25 0 c-35 0 -40 14 -11 30 30 16 35 53
7 48 -19 -3 -102 48 -102 63 0 20 23 66 45 89 40 42 17 51 -42 18 -51 -29 -70
-58 -38 -58 8 0 15 -2 15 -4 0 -8 -30 -76 -34 -76 -2 0 -14 50 -26 110 l-23
110 -34 -20 c-43 -25 -41 -25 -46 8 -2 15 -5 -5 -6 -45 -1 -80 -11 -91 -53
-61 -33 23 -35 37 -8 71 32 40 24 50 -20 27 -40 -20 -50 -35 -29 -42 5 -2 7
-11 4 -21 -11 -27 -23 -11 -31 39 -7 47 -24 44 -24 -3 0 -26 -17 -29 -45 -9
-18 13 -18 15 -1 41 22 34 14 43 -20 20 -16 -10 -22 -20 -16 -24 6 -4 7 -12 3
-20 -6 -9 -13 4 -21 38 -11 45 -14 50 -31 40 -10 -5 -19 -14 -19 -20 0 -6 4
-8 9 -4 6 3 13 -16 16 -42 4 -27 9 -56 12 -65 3 -13 -1 -18 -16 -18 -19 0 -21
6 -21 54 0 45 -3 54 -17 52 -14 -1 -18 6 -16 26 1 20 -2 25 -13 21 -8 -3 -14
-13 -15 -22 0 -12 -2 -12 -9 4 -5 11 -9 14 -9 8 -1 -7 -8 -13 -17 -13 -11 0
-14 6 -9 21 6 18 4 20 -14 14 -12 -4 -21 -2 -21 4 0 6 -3 11 -8 11 -4 0 -7
-17 -6 -37 1 -24 0 -28 -3 -10 -2 15 -9 27 -14 27 -6 0 -8 4 -5 9 3 5 -3 11
-14 14 -16 4 -20 0 -21 -21z m-2 -68 c-2 -13 -1 -21 4 -19 12 8 59 -13 59 -26
0 -7 -7 -20 -16 -30 -10 -11 -12 -19 -5 -24 6 -3 11 1 11 9 0 9 7 16 15 16 8
0 15 -4 15 -10 0 -5 6 -10 14 -10 25 0 28 -18 6 -40 -20 -20 -19 -40 2 -40 5
0 8 7 4 15 -8 21 16 19 58 -6 20 -12 36 -17 36 -12 0 4 5 1 10 -7 16 -25 11
-59 -11 -81 -22 -22 -22 -54 1 -54 10 0 14 8 12 23 -3 18 1 22 25 22 17 0 33
-8 41 -20 7 -11 21 -20 31 -20 11 0 21 -5 23 -12 7 -19 -23 -70 -44 -76 -12
-3 -17 -10 -14 -19 3 -8 6 -21 6 -29 0 -8 10 -14 25 -14 28 0 28 0 15 34 -9
25 -8 26 30 26 31 0 43 -5 56 -25 9 -14 23 -25 32 -25 8 0 24 -7 34 -16 13
-13 21 -14 31 -5 31 25 51 -98 25 -154 -7 -16 -23 -28 -38 -32 -25 -5 -27 -7
-20 -44 9 -48 12 -51 45 -51 36 -1 37 3 21 50 l-15 42 55 0 c50 0 57 -3 85
-35 18 -20 40 -35 53 -35 27 0 83 -55 66 -65 -6 -4 -22 -31 -35 -60 -19 -43
-29 -54 -54 -60 -33 -7 -36 -17 -25 -87 6 -32 11 -38 30 -38 13 0 24 -6 25
-12 0 -10 2 -10 6 0 2 6 13 12 24 12 23 0 23 7 4 53 -26 63 -23 67 54 67 l70
0 42 -50 c34 -40 48 -50 74 -50 41 0 109 -65 85 -81 -21 -14 -88 -49 -94 -49
-3 0 -30 36 -61 80 -31 44 -59 80 -61 80 -3 0 20 -35 50 -79 30 -43 53 -81 49
-85 -3 -3 -51 -6 -105 -6 -93 0 -99 1 -108 23 l-9 22 0 -22 c-1 -22 -5 -23
-71 -23 l-70 0 -2 33 -1 32 -4 -32 -4 -32 -165 0 c-103 0 -164 3 -164 10 0 5
9 27 20 49 11 22 20 43 20 47 -1 4 -14 -18 -31 -49 l-29 -58 -63 0 c-35 0 -66
3 -70 6 -9 10 72 124 88 124 7 0 24 14 36 31 19 27 23 29 31 15 5 -9 18 -16
28 -16 11 0 20 -5 20 -12 0 -19 58 65 65 95 8 31 -1 77 -15 77 -5 0 -10 -17
-12 -37 -4 -50 -27 -50 -53 -1 -19 36 -22 38 -72 38 -35 0 -53 4 -53 12 0 9
-3 9 -12 0 -26 -26 -163 -6 -194 29 -17 19 -16 21 22 58 26 26 52 41 79 46
l40 7 -19 -21 c-22 -25 -17 -33 19 -33 16 0 33 8 42 22 11 15 18 19 26 11 33
-33 88 21 79 79 -2 16 -8 27 -13 24 -5 -3 -7 -9 -4 -14 7 -11 -5 -40 -16 -40
-5 0 -15 13 -24 29 -13 26 -13 33 1 66 8 21 14 39 12 40 -2 2 -53 5 -113 6
-105 1 -165 15 -165 38 0 16 61 61 82 61 16 0 18 -3 9 -14 -7 -9 -8 -17 -2
-20 12 -8 41 3 41 16 0 5 9 6 20 3 29 -9 50 12 49 49 -1 23 -3 25 -6 9 -5 -28
-19 -29 -33 -3 -9 17 -21 20 -73 20 -39 0 -71 6 -82 14 -19 14 -19 15 -1 35
19 21 63 30 51 11 -3 -5 1 -10 9 -10 8 0 17 4 21 10 3 5 13 6 21 3 18 -7 34
13 33 42 0 19 -1 19 -8 1 -11 -28 -25 -2 -17 30 6 23 5 24 -51 24 -32 0 -65 5
-73 10 -13 8 -13 12 3 27 14 14 19 15 26 5 6 -10 14 -10 35 -2 24 9 26 12 12
25 -8 8 -27 15 -43 15 -42 0 -58 13 -38 30 13 10 18 11 24 2 5 -9 12 -8 27 3
12 9 14 14 5 15 -7 0 -11 6 -7 15 4 11 -2 15 -24 15 -16 0 -32 5 -35 10 -3 6
5 10 18 10 20 0 24 4 20 20 -4 14 1 22 18 29 31 11 42 4 36 -25z m582 -106
c17 -86 31 -171 31 -185 0 -9 -14 -13 -40 -13 l-40 0 0 118 c0 65 3 122 7 125
18 18 32 3 42 -45z m1526 -783 l50 -45 -25 -18 c-13 -9 -33 -25 -42 -34 -23
-23 -113 -25 -122 -3 -17 47 -18 116 0 159 l18 44 36 -29 c19 -15 58 -49 85
-74z m-1961 -107 l-27 -33 26 -3 27 -3 -40 -60 c-23 -32 -45 -59 -50 -59 -17
0 -65 24 -87 43 l-22 20 50 56 c48 54 62 62 137 70 8 0 2 -13 -14 -31z m1477
-590 c23 -86 -4 -237 -59 -325 l-27 -43 -337 0 -336 0 -1 77 c0 42 -3 78 -6
81 -3 3 -16 0 -29 -6 -21 -9 -23 -15 -18 -60 5 -55 -10 -92 -37 -92 -22 0 -40
21 -75 86 l-28 51 35 94 c19 52 38 117 42 144 6 44 14 56 63 103 31 29 87 68
124 87 69 34 207 71 232 62 7 -3 42 -51 77 -106 35 -55 70 -101 77 -101 6 0
20 8 30 18 14 14 20 48 30 167 20 237 9 237 127 7 57 -110 109 -220 116 -244z
m-657 -405 c-4 -16 -20 -65 -35 -110 -16 -45 -29 -86 -29 -92 0 -6 19 -11 45
-11 29 0 45 -4 45 -12 0 -7 -7 -59 -17 -115 l-17 -103 -168 0 c-92 0 -168 2
-168 4 0 20 160 329 185 357 18 20 38 53 45 73 11 36 12 36 66 36 54 0 54 0
48 -27z m300 -35 c9 -108 26 -362 26 -385 0 -23 -1 -23 -155 -23 -117 0 -155
3 -155 13 0 6 8 58 17 114 l17 103 58 0 58 0 0 59 c0 32 3 86 6 120 l7 61 58
0 57 0 6 -62z m160 30 c3 -18 11 -71 18 -118 l13 -85 46 -3 c44 -3 47 -5 53
-35 4 -18 15 -69 25 -114 l19 -83 -143 0 -142 0 -12 153 c-6 83 -14 189 -17
235 l-6 82 70 0 71 0 5 -32z m319 18 c3 -8 73 -112 156 -230 l149 -215 -41 -6
c-23 -3 -120 -5 -216 -3 l-174 3 -23 100 c-13 55 -23 106 -24 113 0 7 14 12
40 12 50 0 50 2 5 131 -19 56 -35 103 -35 105 0 2 36 4 79 4 59 0 80 -4 84
-14z m208 -86 l84 -100 60 0 61 0 64 -66 65 -65 -35 -30 c-37 -31 -148 -89
-171 -89 -11 0 -305 409 -317 441 -2 5 21 9 51 9 l54 0 84 -100z m-1498 28
c-5 -7 -31 -40 -56 -74 -26 -33 -47 -63 -47 -67 0 -4 23 -7 50 -7 l50 0 -80
-120 -80 -119 -57 20 c-59 20 -139 67 -166 97 -14 16 -8 25 95 130 108 111
110 112 156 113 26 0 67 8 92 19 57 23 54 22 43 8z m251 -92 c20 0 36 -1 36
-3 0 -2 -34 -71 -75 -153 l-75 -150 -129 0 c-72 0 -132 4 -136 10 -3 5 29 61
71 125 71 105 80 115 108 115 27 0 36 8 69 59 l38 60 28 -32 c22 -24 37 -31
65 -31z"/>
</g>
</svg>
